# xmcd
#
# Track frame offsets:
#	150
#	9915
#	23640
#	40633
#	51590
#	67818
#	80585
#	99303
#	112380
#	132888
#	144900
#	155803
#
# Disc length: 2385 seconds
#
# Revision: 2
# Processed by: cddbd v1.5PL3 Copyright (c) Steve Scherf et al.
# Submitted via: CDmax 2.0
#
DISCID=98094f0c
DTITLE=Kentucky Headhunters - Rave On!!
DYEAR=1993
DGENRE=Country
TTITLE0=Dixiefried
TTITLE1=Just Ask fo' Lucy
TTITLE2=Hoky Tonk Walkin'
TTITLE3=Redneck Girl
TTITLE4=Dizzie Miss Daisy
TTITLE5=Celina Tennessee
TTITLE6=The Ghost of Hank Williams
TTITLE7=Freedom Stomp
TTITLE8=Muddy Water
TTITLE9=My Gal
TTITLE10=Blue Moon of Kentucky
TTITLE11=Underground
EXTD=LABEL =Polygram Records, Inc.\nID =p212568\nUPC =020831-4556-291\nCOP
EXTD=YRIGHT =1993
EXTT0=
EXTT1=
EXTT2=
EXTT3=
EXTT4=
EXTT5=
EXTT6=
EXTT7=
EXTT8=
EXTT9=
EXTT10=
EXTT11=
PLAYORDER=
